<?xml version="1.0" encoding="UTF-8" standalone="no"?>
<!-- Created with Inkscape (http://www.inkscape.org/) -->

<svg
   width="20cm"
   height="20cm"
   viewBox="0 0 200 200"
   version="1.1"
   id="svg1871"
   sodipodi:docname="head.svg"
   inkscape:version="1.1.2 (0a00cf5339, 2022-02-04)"
   xmlns:inkscape="http://www.inkscape.org/namespaces/inkscape"
   xmlns:sodipodi="http://sodipodi.sourceforge.net/DTD/sodipodi-0.dtd"
   xmlns="http://www.w3.org/2000/svg"
   xmlns:svg="http://www.w3.org/2000/svg">
  <sodipodi:namedview
     id="namedview1873"
     pagecolor="#ffffff"
     bordercolor="#666666"
     borderopacity="1.0"
     inkscape:pageshadow="2"
     inkscape:pageopacity="0.0"
     inkscape:pagecheckerboard="0"
     inkscape:document-units="mm"
     showgrid="false"
     units="cm"
     inkscape:zoom="0.45481875"
     inkscape:cx="489.20586"
     inkscape:cy="927.84213"
     inkscape:window-width="2558"
     inkscape:window-height="1405"
     inkscape:window-x="3840"
     inkscape:window-y="16"
     inkscape:window-maximized="1"
     inkscape:current-layer="g3587" />
  <defs
     id="defs1868" />
  <g
     inkscape:label="Layer 1"
     inkscape:groupmode="layer"
     id="layer1">
    <g
       id="g3587"
       transform="translate(8.9864659,1.330227)">
      <g
         id="g3502"
         style="stroke-width:1;stroke-miterlimit:4;stroke-dasharray:none">
        <path
           id="path3545"
           style="fill:#e9c6af;stroke:#000000;stroke-width:1;stroke-miterlimit:4;stroke-dasharray:none"
           d="m 176.1691,103.81363 c 0,39.0049 -30.05199,60.67712 -76.1691,66.81099 C 54.28548,176.70495 16.497588,139.0049 16.497589,100 16.497589,60.9951 54.261582,23.477523 100,29.375381 c 41.17817,7.861399 74.54075,32.089287 76.1691,74.438249 z"
           sodipodi:nodetypes="csscc" />
      </g>
      <path
         id="path3545-3"
         style="fill:#502d16;stroke-width:2.45434"
         d="m 161.93504,114.41815 c -2.27393,20.91537 -17.98848,31.14979 -28.87677,39.12415 -9.29825,6.80985 -22.98431,19.50464 -44.226584,19.50464 -46.117106,0 -84.2008851,-35.05473 -84.2008877,-74.059625 2e-6,-39.004898 36.4965127,-74.694709 82.6136187,-74.694709 22.307493,-1e-6 46.544943,16.191255 59.583253,30.321029 10.00246,10.839789 17.948,33.676761 15.10737,59.804515 z"
         sodipodi:nodetypes="sssssss" />
    </g>
  </g>
</svg>
